<?xml version="1.0" encoding="UTF-8" standalone="no"?>
<!DOCTYPE svg PUBLIC "-//W3C//DTD SVG 1.1//EN"
 "http://www.w3.org/Graphics/SVG/1.1/DTD/svg11.dtd">
<!-- Generated by graphviz version 2.43.0 (0)
 -->
<!-- Title: arbre Pages: 1 -->
<svg width="599pt" height="566pt"
 viewBox="0.00 0.00 599.49 566.00" xmlns="http://www.w3.org/2000/svg" xmlns:xlink="http://www.w3.org/1999/xlink">
<g id="graph0" class="graph" transform="scale(1 1) rotate(0) translate(4 562)">
<title>arbre</title>
<polygon fill="white" stroke="transparent" points="-4,4 -4,-562 595.49,-562 595.49,4 -4,4"/>
<!-- vertèbres -->
<g id="node1" class="node">
<title>vertèbres</title>
<ellipse fill="none" stroke="black" cx="210.95" cy="-540" rx="55.79" ry="18"/>
<text text-anchor="middle" x="210.95" y="-536.3" font-family="Times,serif" font-size="14.00">vertèbres</text>
</g>
<!-- coquille -->
<g id="node2" class="node">
<title>coquille</title>
<ellipse fill="none" stroke="black" cx="150.95" cy="-453" rx="46.59" ry="18"/>
<text text-anchor="middle" x="150.95" y="-449.3" font-family="Times,serif" font-size="14.00">coquille</text>
</g>
<!-- vertèbres&#45;&gt;coquille -->
<g id="edge1" class="edge">
<title>vertèbres&#45;&gt;coquille</title>
<path fill="none" stroke="black" d="M199.09,-522.21C190.32,-509.79 178.25,-492.67 168.38,-478.7"/>
<polygon fill="black" stroke="black" points="171.2,-476.62 162.57,-470.47 165.48,-480.66 171.2,-476.62"/>
<text text-anchor="middle" x="198.45" y="-492.8" font-family="Times,serif" font-size="14.00">non</text>
</g>
<!-- mâchoire -->
<g id="node5" class="node">
<title>mâchoire</title>
<ellipse fill="none" stroke="black" cx="271.95" cy="-453" rx="53.89" ry="18"/>
<text text-anchor="middle" x="271.95" y="-449.3" font-family="Times,serif" font-size="14.00">mâchoire</text>
</g>
<!-- vertèbres&#45;&gt;mâchoire -->
<g id="edge4" class="edge">
<title>vertèbres&#45;&gt;mâchoire</title>
<path fill="none" stroke="black" d="M223,-522.21C231.85,-509.87 244.03,-492.89 254.03,-478.97"/>
<polygon fill="black" stroke="black" points="256.93,-480.92 259.92,-470.76 251.25,-476.84 256.93,-480.92"/>
<text text-anchor="middle" x="256.95" y="-492.8" font-family="Times,serif" font-size="14.00">oui</text>
</g>
<!-- limace -->
<g id="node3" class="node">
<title>limace</title>
<ellipse fill="none" stroke="black" cx="40.95" cy="-366" rx="40.89" ry="18"/>
<text text-anchor="middle" x="40.95" y="-362.3" font-family="Times,serif" font-size="14.00">limace</text>
</g>
<!-- coquille&#45;&gt;limace -->
<g id="edge2" class="edge">
<title>coquille&#45;&gt;limace</title>
<path fill="none" stroke="black" d="M131.03,-436.61C113.47,-423.04 87.74,-403.16 68.27,-388.11"/>
<polygon fill="black" stroke="black" points="70.4,-385.34 60.35,-381.99 66.12,-390.88 70.4,-385.34"/>
<text text-anchor="middle" x="116.45" y="-405.8" font-family="Times,serif" font-size="14.00">non</text>
</g>
<!-- escargot -->
<g id="node4" class="node">
<title>escargot</title>
<ellipse fill="none" stroke="black" cx="150.95" cy="-366" rx="50.89" ry="18"/>
<text text-anchor="middle" x="150.95" y="-362.3" font-family="Times,serif" font-size="14.00">escargot</text>
</g>
<!-- coquille&#45;&gt;escargot -->
<g id="edge3" class="edge">
<title>coquille&#45;&gt;escargot</title>
<path fill="none" stroke="black" d="M150.95,-434.8C150.95,-423.16 150.95,-407.55 150.95,-394.24"/>
<polygon fill="black" stroke="black" points="154.45,-394.18 150.95,-384.18 147.45,-394.18 154.45,-394.18"/>
<text text-anchor="middle" x="161.95" y="-405.8" font-family="Times,serif" font-size="14.00">oui</text>
</g>
<!-- lamproie -->
<g id="node6" class="node">
<title>lamproie</title>
<ellipse fill="none" stroke="black" cx="271.95" cy="-366" rx="51.99" ry="18"/>
<text text-anchor="middle" x="271.95" y="-362.3" font-family="Times,serif" font-size="14.00">lamproie</text>
</g>
<!-- mâchoire&#45;&gt;lamproie -->
<g id="edge5" class="edge">
<title>mâchoire&#45;&gt;lamproie</title>
<path fill="none" stroke="black" d="M271.95,-434.8C271.95,-423.16 271.95,-407.55 271.95,-394.24"/>
<polygon fill="black" stroke="black" points="275.45,-394.18 271.95,-384.18 268.45,-394.18 275.45,-394.18"/>
<text text-anchor="middle" x="285.45" y="-405.8" font-family="Times,serif" font-size="14.00">non</text>
</g>
<!-- doigts -->
<g id="node7" class="node">
<title>doigts</title>
<ellipse fill="none" stroke="black" cx="381.95" cy="-366" rx="39.79" ry="18"/>
<text text-anchor="middle" x="381.95" y="-362.3" font-family="Times,serif" font-size="14.00">doigts</text>
</g>
<!-- mâchoire&#45;&gt;doigts -->
<g id="edge6" class="edge">
<title>mâchoire&#45;&gt;doigts</title>
<path fill="none" stroke="black" d="M292.38,-436.21C309.91,-422.66 335.33,-403.02 354.62,-388.12"/>
<polygon fill="black" stroke="black" points="356.96,-390.73 362.73,-381.85 352.68,-385.19 356.96,-390.73"/>
<text text-anchor="middle" x="344.95" y="-405.8" font-family="Times,serif" font-size="14.00">oui</text>
</g>
<!-- carpe -->
<g id="node8" class="node">
<title>carpe</title>
<ellipse fill="none" stroke="black" cx="344.95" cy="-279" rx="36.29" ry="18"/>
<text text-anchor="middle" x="344.95" y="-275.3" font-family="Times,serif" font-size="14.00">carpe</text>
</g>
<!-- doigts&#45;&gt;carpe -->
<g id="edge7" class="edge">
<title>doigts&#45;&gt;carpe</title>
<path fill="none" stroke="black" d="M374.64,-348.21C369.42,-336.22 362.29,-319.85 356.33,-306.16"/>
<polygon fill="black" stroke="black" points="359.44,-304.53 352.24,-296.76 353.02,-307.32 359.44,-304.53"/>
<text text-anchor="middle" x="379.45" y="-318.8" font-family="Times,serif" font-size="14.00">non</text>
</g>
<!-- amnios -->
<g id="node9" class="node">
<title>amnios</title>
<ellipse fill="none" stroke="black" cx="443.95" cy="-279" rx="44.39" ry="18"/>
<text text-anchor="middle" x="443.95" y="-275.3" font-family="Times,serif" font-size="14.00">amnios</text>
</g>
<!-- doigts&#45;&gt;amnios -->
<g id="edge8" class="edge">
<title>doigts&#45;&gt;amnios</title>
<path fill="none" stroke="black" d="M393.9,-348.61C402.99,-336.15 415.65,-318.79 425.96,-304.65"/>
<polygon fill="black" stroke="black" points="428.96,-306.48 432.03,-296.34 423.31,-302.36 428.96,-306.48"/>
<text text-anchor="middle" x="427.95" y="-318.8" font-family="Times,serif" font-size="14.00">oui</text>
</g>
<!-- grenouille -->
<g id="node10" class="node">
<title>grenouille</title>
<ellipse fill="none" stroke="black" cx="399.95" cy="-192" rx="57.69" ry="18"/>
<text text-anchor="middle" x="399.95" y="-188.3" font-family="Times,serif" font-size="14.00">grenouille</text>
</g>
<!-- amnios&#45;&gt;grenouille -->
<g id="edge9" class="edge">
<title>amnios&#45;&gt;grenouille</title>
<path fill="none" stroke="black" d="M435.25,-261.21C429.03,-249.18 420.52,-232.75 413.42,-219.03"/>
<polygon fill="black" stroke="black" points="416.48,-217.32 408.77,-210.05 410.26,-220.54 416.48,-217.32"/>
<text text-anchor="middle" x="438.45" y="-231.8" font-family="Times,serif" font-size="14.00">non</text>
</g>
<!-- placenta -->
<g id="node11" class="node">
<title>placenta</title>
<ellipse fill="none" stroke="black" cx="525.95" cy="-192" rx="50.09" ry="18"/>
<text text-anchor="middle" x="525.95" y="-188.3" font-family="Times,serif" font-size="14.00">placenta</text>
</g>
<!-- amnios&#45;&gt;placenta -->
<g id="edge10" class="edge">
<title>amnios&#45;&gt;placenta</title>
<path fill="none" stroke="black" d="M459.37,-262.01C471.66,-249.27 489.06,-231.24 502.99,-216.8"/>
<polygon fill="black" stroke="black" points="505.89,-218.83 510.31,-209.21 500.85,-213.97 505.89,-218.83"/>
<text text-anchor="middle" x="500.95" y="-231.8" font-family="Times,serif" font-size="14.00">oui</text>
</g>
<!-- plumes -->
<g id="node12" class="node">
<title>plumes</title>
<ellipse fill="none" stroke="black" cx="467.95" cy="-105" rx="44.39" ry="18"/>
<text text-anchor="middle" x="467.95" y="-101.3" font-family="Times,serif" font-size="14.00">plumes</text>
</g>
<!-- placenta&#45;&gt;plumes -->
<g id="edge11" class="edge">
<title>placenta&#45;&gt;plumes</title>
<path fill="none" stroke="black" d="M514.49,-174.21C506.09,-161.9 494.56,-145 485.07,-131.09"/>
<polygon fill="black" stroke="black" points="487.71,-128.76 479.18,-122.47 481.93,-132.7 487.71,-128.76"/>
<text text-anchor="middle" x="514.45" y="-144.8" font-family="Times,serif" font-size="14.00">non</text>
</g>
<!-- chat -->
<g id="node13" class="node">
<title>chat</title>
<ellipse fill="none" stroke="black" cx="560.95" cy="-105" rx="30.59" ry="18"/>
<text text-anchor="middle" x="560.95" y="-101.3" font-family="Times,serif" font-size="14.00">chat</text>
</g>
<!-- placenta&#45;&gt;chat -->
<g id="edge12" class="edge">
<title>placenta&#45;&gt;chat</title>
<path fill="none" stroke="black" d="M533.03,-173.8C537.98,-161.78 544.68,-145.51 550.27,-131.92"/>
<polygon fill="black" stroke="black" points="553.54,-133.18 554.11,-122.6 547.07,-130.51 553.54,-133.18"/>
<text text-anchor="middle" x="556.95" y="-144.8" font-family="Times,serif" font-size="14.00">oui</text>
</g>
<!-- crocodile -->
<g id="node14" class="node">
<title>crocodile</title>
<ellipse fill="none" stroke="black" cx="406.95" cy="-18" rx="52.79" ry="18"/>
<text text-anchor="middle" x="406.95" y="-14.3" font-family="Times,serif" font-size="14.00">crocodile</text>
</g>
<!-- plumes&#45;&gt;crocodile -->
<g id="edge13" class="edge">
<title>plumes&#45;&gt;crocodile</title>
<path fill="none" stroke="black" d="M456.18,-87.61C447.3,-75.23 434.94,-58.01 424.83,-43.92"/>
<polygon fill="black" stroke="black" points="427.55,-41.71 418.88,-35.63 421.87,-45.79 427.55,-41.71"/>
<text text-anchor="middle" x="455.45" y="-57.8" font-family="Times,serif" font-size="14.00">non</text>
</g>
<!-- autruche -->
<g id="node15" class="node">
<title>autruche</title>
<ellipse fill="none" stroke="black" cx="529.95" cy="-18" rx="51.99" ry="18"/>
<text text-anchor="middle" x="529.95" y="-14.3" font-family="Times,serif" font-size="14.00">autruche</text>
</g>
<!-- plumes&#45;&gt;autruche -->
<g id="edge14" class="edge">
<title>plumes&#45;&gt;autruche</title>
<path fill="none" stroke="black" d="M479.9,-87.61C488.93,-75.23 501.49,-58.01 511.77,-43.92"/>
<polygon fill="black" stroke="black" points="514.75,-45.77 517.82,-35.63 509.1,-41.65 514.75,-45.77"/>
<text text-anchor="middle" x="513.95" y="-57.8" font-family="Times,serif" font-size="14.00">oui</text>
</g>
</g>
</svg>
